<svg viewBox="-140.32 -230.48 280.64 280.64" xmlns="http://www.w3.org/2000/svg">
<polygon points="0.00,-68.08 39.84,-45.08 0.00,-22.08 -39.84,-45.08" fill="#687185" stroke="#0B0E14" stroke-opacity="0.14" stroke-width="1"/>
<polygon points="39.84,0.00 0.00,23.00 0.00,-22.08 39.84,-45.08" fill="#41495a" stroke="#0B0E14" stroke-opacity="0.14" stroke-width="1"/>
<polygon points="-39.84,0.00 0.00,23.00 0.00,-22.08 -39.84,-45.08" fill="#191d26" stroke="#0B0E14" stroke-opacity="0.14" stroke-width="1"/>
<polygon points="-39.84,-136.16 0.00,-113.16 -39.84,-90.16 -79.67,-113.16" fill="#ec9370" stroke="#0B0E14" stroke-opacity="0.14" stroke-width="1"/>
<polygon points="0.00,-68.08 -39.84,-45.08 -39.84,-90.16 0.00,-113.16" fill="#e75b23" stroke="#0B0E14" stroke-opacity="0.14" stroke-width="1"/>
<polygon points="-79.67,-68.08 -39.84,-45.08 -39.84,-90.16 -79.67,-113.16" fill="#a0380e" stroke="#0B0E14" stroke-opacity="0.14" stroke-width="1"/>
<polygon points="39.84,-136.16 79.67,-113.16 39.84,-90.16 0.00,-113.16" fill="#ec9370" stroke="#0B0E14" stroke-opacity="0.14" stroke-width="1"/>
<polygon points="79.67,-68.08 39.84,-45.08 39.84,-90.16 79.67,-113.16" fill="#e75b23" stroke="#0B0E14" stroke-opacity="0.14" stroke-width="1"/>
<polygon points="0.00,-68.08 39.84,-45.08 39.84,-90.16 0.00,-113.16" fill="#a0380e" stroke="#0B0E14" stroke-opacity="0.14" stroke-width="1"/>
<polygon points="0.00,-113.16 39.84,-90.16 0.00,-67.16 -39.84,-90.16" fill="#ec9370" stroke="#0B0E14" stroke-opacity="0.14" stroke-width="1"/>
<polygon points="39.84,-45.08 0.00,-22.08 0.00,-67.16 39.84,-90.16" fill="#e75b23" stroke="#0B0E14" stroke-opacity="0.14" stroke-width="1"/>
<polygon points="-39.84,-45.08 0.00,-22.08 0.00,-67.16 -39.84,-90.16" fill="#a0380e" stroke="#0B0E14" stroke-opacity="0.14" stroke-width="1"/>
<polygon points="39.84,-90.16 79.67,-67.16 39.84,-44.16 0.00,-67.16" fill="#ec9370" stroke="#0B0E14" stroke-opacity="0.14" stroke-width="1"/>
<polygon points="79.67,-22.08 39.84,0.92 39.84,-44.16 79.67,-67.16" fill="#e75b23" stroke="#0B0E14" stroke-opacity="0.14" stroke-width="1"/>
<polygon points="0.00,-22.08 39.84,0.92 39.84,-44.16 0.00,-67.16" fill="#a0380e" stroke="#0B0E14" stroke-opacity="0.14" stroke-width="1"/>
<polygon points="-39.84,-90.16 0.00,-67.16 -39.84,-44.16 -79.67,-67.16" fill="#ec9370" stroke="#0B0E14" stroke-opacity="0.14" stroke-width="1"/>
<polygon points="0.00,-22.08 -39.84,0.92 -39.84,-44.16 0.00,-67.16" fill="#e75b23" stroke="#0B0E14" stroke-opacity="0.14" stroke-width="1"/>
<polygon points="-79.67,-22.08 -39.84,0.92 -39.84,-44.16 -79.67,-67.16" fill="#a0380e" stroke="#0B0E14" stroke-opacity="0.14" stroke-width="1"/>
<polygon points="-39.84,-181.24 0.00,-158.24 -39.84,-135.24 -79.67,-158.24" fill="#687185" stroke="#0B0E14" stroke-opacity="0.14" stroke-width="1"/>
<polygon points="0.00,-113.16 -39.84,-90.16 -39.84,-135.24 0.00,-158.24" fill="#41495a" stroke="#0B0E14" stroke-opacity="0.14" stroke-width="1"/>
<polygon points="-79.67,-113.16 -39.84,-90.16 -39.84,-135.24 -79.67,-158.24" fill="#191d26" stroke="#0B0E14" stroke-opacity="0.14" stroke-width="1"/>
<polygon points="39.84,-181.24 79.67,-158.24 39.84,-135.24 0.00,-158.24" fill="#687185" stroke="#0B0E14" stroke-opacity="0.14" stroke-width="1"/>
<polygon points="79.67,-113.16 39.84,-90.16 39.84,-135.24 79.67,-158.24" fill="#41495a" stroke="#0B0E14" stroke-opacity="0.14" stroke-width="1"/>
<polygon points="0.00,-113.16 39.84,-90.16 39.84,-135.24 0.00,-158.24" fill="#191d26" stroke="#0B0E14" stroke-opacity="0.14" stroke-width="1"/>
<polygon points="0.00,-158.24 39.84,-135.24 0.00,-112.24 -39.84,-135.24" fill="#687185" stroke="#0B0E14" stroke-opacity="0.14" stroke-width="1"/>
<polygon points="39.84,-90.16 0.00,-67.16 0.00,-112.24 39.84,-135.24" fill="#41495a" stroke="#0B0E14" stroke-opacity="0.14" stroke-width="1"/>
<polygon points="-39.84,-90.16 0.00,-67.16 0.00,-112.24 -39.84,-135.24" fill="#191d26" stroke="#0B0E14" stroke-opacity="0.14" stroke-width="1"/>
<polygon points="39.84,-135.24 79.67,-112.24 39.84,-89.24 0.00,-112.24" fill="#687185" stroke="#0B0E14" stroke-opacity="0.14" stroke-width="1"/>
<polygon points="79.67,-67.16 39.84,-44.16 39.84,-89.24 79.67,-112.24" fill="#41495a" stroke="#0B0E14" stroke-opacity="0.14" stroke-width="1"/>
<polygon points="0.00,-67.16 39.84,-44.16 39.84,-89.24 0.00,-112.24" fill="#191d26" stroke="#0B0E14" stroke-opacity="0.14" stroke-width="1"/>
<polygon points="-39.84,-135.24 0.00,-112.24 -39.84,-89.24 -79.67,-112.24" fill="#687185" stroke="#0B0E14" stroke-opacity="0.14" stroke-width="1"/>
<polygon points="0.00,-67.16 -39.84,-44.16 -39.84,-89.24 0.00,-112.24" fill="#41495a" stroke="#0B0E14" stroke-opacity="0.14" stroke-width="1"/>
<polygon points="-79.67,-67.16 -39.84,-44.16 -39.84,-89.24 -79.67,-112.24" fill="#191d26" stroke="#0B0E14" stroke-opacity="0.14" stroke-width="1"/>
<polygon points="0.00,-203.32 39.84,-180.32 0.00,-157.32 -39.84,-180.32" fill="#ec9370" stroke="#0B0E14" stroke-opacity="0.14" stroke-width="1"/>
<polygon points="39.84,-135.24 0.00,-112.24 0.00,-157.32 39.84,-180.32" fill="#e75b23" stroke="#0B0E14" stroke-opacity="0.14" stroke-width="1"/>
<polygon points="-39.84,-135.24 0.00,-112.24 0.00,-157.32 -39.84,-180.32" fill="#a0380e" stroke="#0B0E14" stroke-opacity="0.14" stroke-width="1"/>
</svg>